<?xml version="1.0" encoding="UTF-8" standalone="no"?>
<!-- Uploaded to: SVG Repo, www.svgrepo.com, Transformed by: SVG Repo Mixer Tools -->

<svg
   width="150px"
   height="150px"
   viewBox="0 0 48.00 48.00"
   fill="#000000"
   stroke="#000000"
   stroke-width="1.7280000000000002"
   version="1.1"
   id="svg2"
   sodipodi:docname="battery-svgrepo-com (1).svg"
   inkscape:version="1.3 (0e150ed6c4, 2023-07-21)"
   xmlns:inkscape="http://www.inkscape.org/namespaces/inkscape"
   xmlns:sodipodi="http://sodipodi.sourceforge.net/DTD/sodipodi-0.dtd"
   xmlns="http://www.w3.org/2000/svg"
   xmlns:svg="http://www.w3.org/2000/svg">
  <defs
     id="defs2" />
  <sodipodi:namedview
     id="namedview2"
     pagecolor="#ffffff"
     bordercolor="#000000"
     borderopacity="0.25"
     inkscape:showpageshadow="2"
     inkscape:pageopacity="0.0"
     inkscape:pagecheckerboard="true"
     inkscape:deskcolor="#d1d1d1"
     showborder="false"
     inkscape:zoom="3.8325188"
     inkscape:cx="23.091863"
     inkscape:cy="92.23699"
     inkscape:window-width="1920"
     inkscape:window-height="1009"
     inkscape:window-x="-8"
     inkscape:window-y="-8"
     inkscape:window-maximized="1"
     inkscape:current-layer="svg2" />
  <g
     id="SVGRepo_bgCarrier"
     stroke-width="0" />
  <g
     id="SVGRepo_tracerCarrier"
     stroke-linecap="round"
     stroke-linejoin="round" />
  <g
     id="SVGRepo_iconCarrier"
     transform="matrix(1.0426169,0,0,1.1815812,-1.0112954,-4.3091914)">
    <defs
       id="defs1">
      <style
         id="style1">.a{fill:none;stroke:#ffffff;stroke-linecap:round;stroke-linejoin:round;}</style>
    </defs>
    <path
       class="a"
       d="m 20.5,4.5 h 6.67 a 1,1 0 0 1 1,1 v 3 h 4.63 a 2,2 0 0 1 2,2 v 31 a 2,2 0 0 1 -2,2 H 15.19 a 2,2 0 0 1 -2,-2 v -31 a 2,2 0 0 1 2,-2 h 4.31 v -3 a 1,1 0 0 1 1,-1 z"
       id="path1" />
    <line
       class="a"
       x1="13.19"
       y1="36.5"
       x2="34.799999"
       y2="36.5"
       id="line1" />
    <line
       class="a"
       x1="19.5"
       y1="8.5"
       x2="28.17"
       y2="8.5"
       id="line2" />
  </g>
</svg>
