<?xml version="1.0" encoding="UTF-8" standalone="no"?>
<!-- Uploaded to: SVG Repo, www.svgrepo.com, Transformed by: SVG Repo Mixer Tools -->

<svg
   fill="#ffffff"
   height="804"
   width="804"
   version="1.1"
   id="Layer_1"
   viewBox="0 0 514.559 514.559"
   xml:space="preserve"
   stroke="#ffffff"
   stroke-width="2.55999"
   sodipodi:docname="charger-svgrepo-com (1).svg"
   inkscape:version="1.3 (0e150ed6c4, 2023-07-21)"
   xmlns:inkscape="http://www.inkscape.org/namespaces/inkscape"
   xmlns:sodipodi="http://sodipodi.sourceforge.net/DTD/sodipodi-0.dtd"
   xmlns="http://www.w3.org/2000/svg"
   xmlns:svg="http://www.w3.org/2000/svg"><defs
   id="defs4" /><sodipodi:namedview
   id="namedview4"
   pagecolor="#ffffff"
   bordercolor="#000000"
   borderopacity="0.25"
   inkscape:showpageshadow="2"
   inkscape:pageopacity="0.0"
   inkscape:pagecheckerboard="true"
   inkscape:deskcolor="#d1d1d1"
   showborder="false"
   inkscape:zoom="1.01625"
   inkscape:cx="307.50308"
   inkscape:cy="228.78229"
   inkscape:window-width="1920"
   inkscape:window-height="1009"
   inkscape:window-x="-8"
   inkscape:window-y="-8"
   inkscape:window-maximized="1"
   inkscape:current-layer="Layer_1" />&#10;&#10;<g
   id="SVGRepo_bgCarrier"
   stroke-width="0" />&#10;&#10;<g
   id="SVGRepo_tracerCarrier"
   stroke-linecap="round"
   stroke-linejoin="round" />&#10;&#10;<g
   id="SVGRepo_iconCarrier"
   transform="translate(0.70870491,1.279995)"> <g
   id="g4"> <g
   id="g3"> <g
   id="g2"> <path
   d="m 284.754,40.48 c 0,-4.472 -3.624,-8.096 -8.096,-8.096 h -75.565 c -4.471,0 -8.096,3.624 -8.096,8.096 0,4.472 3.625,8.096 8.096,8.096 h 75.565 c 4.472,0 8.096,-3.623 8.096,-8.096 z"
   id="path1" /> <path
   d="m 354.148,355.447 h -9.237 c -23.688,0 -42.959,19.271 -42.959,42.958 v 19.697 37.897 13.044 c 0,14.759 -12.006,26.765 -26.764,26.765 -14.759,0 -26.765,-12.006 -26.765,-26.765 v -13.044 -37.897 -52.831 h 18.788 c 4.472,0 8.096,-3.624 8.096,-8.096 v -51.813 h 27.536 c 13.869,0 25.153,-11.284 25.153,-25.156 V 113.343 c 0,-4.472 -3.624,-8.096 -8.096,-8.096 h -3.303 V 21.05 C 316.597,9.443 307.154,0 295.547,0 H 182.204 c -11.607,0 -21.05,9.443 -21.05,21.05 v 84.197 h -3.303 c -4.471,0 -8.096,3.624 -8.096,8.096 v 166.863 c 0,13.872 11.285,25.156 25.156,25.156 h 27.534 v 51.813 c 0,4.472 3.625,8.096 8.096,8.096 h 21.691 v 52.83 37.897 13.044 c 0,23.686 19.271,42.958 42.958,42.958 23.687,0 42.957,-19.271 42.957,-42.958 v -13.044 -37.896 -19.697 c 0,-14.759 12.007,-26.765 26.766,-26.765 h 9.237 c 4.472,0 8.096,-3.624 8.096,-8.096 -10e-4,-4.473 -3.626,-8.097 -8.098,-8.097 z m -143.61,-66.278 h -35.63 c -4.942,0 -8.962,-4.021 -8.962,-8.963 V 121.44 h 93.829 c 4.472,0 8.096,-3.624 8.096,-8.096 0,-4.472 -3.624,-8.096 -8.096,-8.096 h -82.43 V 21.05 c 0,-2.678 2.18,-4.858 4.858,-4.858 h 113.341 c 2.678,0 4.858,2.18 4.858,4.858 v 84.197 h -16.878 c -4.472,0 -8.096,3.624 -8.096,8.096 0,4.472 3.624,8.096 8.096,8.096 h 28.278 v 158.767 c 0,4.942 -4.02,8.963 -8.961,8.963 h -35.632 z m 8.097,59.909 v -43.717 h 40.478 v 43.717 z"
   id="path2" /> </g> </g> </g> </g>&#10;&#10;</svg>
