<?xml version="1.0" encoding="UTF-8" standalone="no"?>
<!-- Uploaded to: SVG Repo, www.svgrepo.com, Transformed by: SVG Repo Mixer Tools -->

<svg
   width="64px"
   height="64px"
   viewBox="0 0 24 24"
   fill="none"
   stroke="#ffffff"
   version="1.1"
   id="svg3"
   sodipodi:docname="cloud-upload-svgrepo-com (2).svg"
   inkscape:version="1.3 (0e150ed6c4, 2023-07-21)"
   xmlns:inkscape="http://www.inkscape.org/namespaces/inkscape"
   xmlns:sodipodi="http://sodipodi.sourceforge.net/DTD/sodipodi-0.dtd"
   xmlns="http://www.w3.org/2000/svg"
   xmlns:svg="http://www.w3.org/2000/svg">
  <defs
     id="defs3" />
  <sodipodi:namedview
     id="namedview3"
     pagecolor="#ffffff"
     bordercolor="#000000"
     borderopacity="0.25"
     inkscape:showpageshadow="2"
     inkscape:pageopacity="0.0"
     inkscape:pagecheckerboard="true"
     inkscape:deskcolor="#d1d1d1"
     showborder="false"
     inkscape:zoom="12.703125"
     inkscape:cx="32"
     inkscape:cy="41.210332"
     inkscape:window-width="1920"
     inkscape:window-height="1009"
     inkscape:window-x="-8"
     inkscape:window-y="-8"
     inkscape:window-maximized="1"
     inkscape:current-layer="svg3" />
  <g
     id="SVGRepo_bgCarrier"
     stroke-width="0" />
  <g
     id="SVGRepo_tracerCarrier"
     stroke-linecap="round"
     stroke-linejoin="round" />
  <g
     id="SVGRepo_iconCarrier">
    <path
       d="M21.96 13.4199C21.8233 12.3214 21.326 11.2993 20.546 10.5139C19.766 9.72844 18.7474 9.22406 17.65 9.07977C17.1768 7.75468 16.2529 6.63824 15.0399 5.92523C13.8269 5.21223 12.4019 4.94801 11.0139 5.17914C9.62597 5.41026 8.36341 6.12202 7.4469 7.18964C6.53039 8.25726 6.01826 9.61302 6 11.02C4.93913 11.02 3.92172 11.4412 3.17157 12.1913C2.42142 12.9415 2 13.9591 2 15.02C2 16.0808 2.42142 17.0982 3.17157 17.8483C3.92172 18.5985 4.93913 19.02 6 19.02H12"
       stroke="#ffffff"
       stroke-width="1.008"
       stroke-linecap="round"
       stroke-linejoin="round"
       id="path1" />
    <path
       d="M18.7793 23V15"
       stroke="#ffffff"
       stroke-width="1.008"
       stroke-linecap="round"
       stroke-linejoin="round"
       id="path2" />
    <path
       d="M15.5801 18.2L18.7801 15L21.98 18.2"
       stroke="#ffffff"
       stroke-width="1.008"
       stroke-linecap="round"
       stroke-linejoin="round"
       id="path3" />
  </g>
</svg>
