<?xml version="1.0" encoding="UTF-8" standalone="no"?>
<!-- Uploaded to: SVG Repo, www.svgrepo.com, Generator: SVG Repo Mixer Tools -->

<svg
   fill="#000000"
   height="800px"
   width="800px"
   version="1.2"
   id="Layer_1"
   viewBox="0 0 256 256"
   xml:space="preserve"
   sodipodi:docname="smart-phone-gadget-device-phone-svgrepo-com-transparent.svg"
   inkscape:version="1.3 (0e150ed6c4, 2023-07-21)"
   xmlns:inkscape="http://www.inkscape.org/namespaces/inkscape"
   xmlns:sodipodi="http://sodipodi.sourceforge.net/DTD/sodipodi-0.dtd"
   xmlns:xlink="http://www.w3.org/1999/xlink"
   xmlns="http://www.w3.org/2000/svg"
   xmlns:svg="http://www.w3.org/2000/svg"><defs
   id="defs1"><inkscape:path-effect
     effect="powerstroke"
     id="path-effect32"
     is_visible="true"
     lpeversion="1.3"
     scale_width="1"
     interpolator_type="CubicBezierJohan"
     interpolator_beta="0.2"
     start_linecap_type="zerowidth"
     end_linecap_type="zerowidth"
     offset_points="9,4.9921382"
     linejoin_type="extrp_arc"
     miter_limit="4"
     not_jump="false"
     sort_points="true"
     message="&lt;b&gt;Ctrl + click&lt;/b&gt; on existing node and move it" /><filter
     inkscape:label="Fast Crop"
     inkscape:menu="Fill and Transparency"
     inkscape:menu-tooltip="Does not filter but adds a filter region"
     style="color-interpolation-filters:sRGB;"
     id="filter2"
     x="0"
     y="0"
     width="1"
     height="1"
     inkscape:auto-region="false"><feFlood
       result="result1"
       flood-color="rgb(200,55,55)"
       flood-opacity="1"
       id="feFlood1" /><feImage
       xlink:href=""
       result="result2"
       id="feImage1" /><feBlend
       result="result4"
       in2="result1"
       mode="multiply"
       id="feBlend1" /><feMerge
       result="fbSourceGraphic"
       id="feMerge2"><feMergeNode
         in="result1"
         id="feMergeNode1" /><feMergeNode
         in="SourceGraphic"
         id="feMergeNode2" /></feMerge><feColorMatrix
       result="fbSourceGraphicAlpha"
       in="fbSourceGraphic"
       values="0 0 0 -1 0 0 0 0 -1 0 0 0 0 -1 0 0 0 0 1 0"
       id="feColorMatrix2" /><feColorMatrix
       id="feColorMatrix3"
       type="saturate"
       values="1"
       in="fbSourceGraphic" /></filter><inkscape:path-effect
     effect="fill_between_many"
     method="bsplinespiro"
     autoreverse="false"
     close="false"
     join="false"
     linkedpaths="#path32,0,1"
     id="path-effect33" /></defs><sodipodi:namedview
   id="namedview1"
   pagecolor="#ffffff"
   bordercolor="#000000"
   borderopacity="0"
   inkscape:showpageshadow="false"
   inkscape:pageopacity="0.0"
   inkscape:pagecheckerboard="true"
   inkscape:deskcolor="#d1d1d1"
   inkscape:zoom="1.000566"
   inkscape:cx="200.38658"
   inkscape:cy="462.23837"
   inkscape:window-width="1920"
   inkscape:window-height="1009"
   inkscape:window-x="-8"
   inkscape:window-y="-8"
   inkscape:window-maximized="1"
   inkscape:current-layer="Layer_1"
   showborder="false"
   borderlayer="false"
   labelstyle="default" />&#10;<path
   id="XMLID_5_"
   d="M 176.3,0 H 81.9 C 73.1,0 66,7.1 66,15.9 v 224.3 c 0,8.8 7.1,15.9 15.9,15.9 H 176 c 8.8,0 15.89999,-7.1 15.9,-15.9 l 1.6e-4,-224.3 C 191.90017,7.1 184.8,0 176.3,0 Z m -47.2,247 c -5.1,0 -9.4,-4.3 -9.4,-9.4 0,-5.1 4.3,-9.4 9.4,-9.4 5.1,0 9.4,4.3 9.4,9.4 0,5.1 -4.3,9.4 -9.4,9.4 z m 52,-28.7 H 77.1 V 37.5 h 104.3 v 180.8 z"
   style="display:inline;fill:#ffffff"
   sodipodi:nodetypes="sssssssssssssscccccc" />&#10;<path
   style="fill:#ffffff;fill-opacity:0;stroke-width:0.6958"
   d="m 248.77338,799.40119 c -18.7725,-2.75898 -33.90228,-15.99581 -40.47704,-35.41274 -1.25597,-3.70918 -1.30131,-14.32 -1.47397,-344.94287 L 206.64424,77.929605 h 196.2198 196.2198 l -0.0103,339.724375 c -0.0114,374.98341 0.38516,343.2384 -4.4157,353.52323 -4.92098,10.5421 -12.90986,18.69229 -23.05812,23.52365 -11.79914,5.61726 4.51605,5.10571 -166.29621,5.21383 -84.2471,0.0533 -154.23576,-0.17631 -156.53015,-0.5135 z M 409.27013,771.5551 c 18.82796,-3.99802 29.14011,-24.90425 20.74712,-42.06143 -2.54243,-5.19729 -8.97866,-11.53035 -14.08105,-13.85536 -17.7898,-8.10625 -38.48101,2.88431 -41.78916,22.19715 -3.41519,19.93778 15.32031,37.92468 35.12309,33.71964 z M 567.07704,399.73713 V 116.89441 H 403.91193 240.74682 v 282.84272 282.84272 h 163.16511 163.16511 z"
   id="path1"
   transform="scale(0.32)" /><rect
   style="fill:#ffffff;fill-opacity:0;stroke-width:0.32"
   id="rect1"
   width="28.054659"
   height="38.964802"
   x="152.07405"
   y="180.57402" /><rect
   style="fill:#ffffff;fill-opacity:0;stroke-width:0.32"
   id="rect2"
   width="25.828077"
   height="28.945272"
   x="153.40999"
   y="189.92558" /><rect
   style="fill:#ffffff;fill-opacity:0;stroke-width:0.32"
   id="rect3"
   width="2.4492161"
   height="3.1171842"
   x="169.21857"
   y="210.85526" /><rect
   style="fill:#ffffff;fill-opacity:0;stroke-width:0.32"
   id="rect4"
   width="71.249916"
   height="43.417919"
   x="107.54287"
   y="177.90215" /><path
   inkscape:original-d="M 0,0"
   inkscape:path-effect="#path-effect33"
   d="m 183.25628,221.63455 -46.37376,-70.67999 2.23874,-37.099 -25.58552,-46.693573 19.50896,49.571943 v 0 l -7.67566,38.05846 v 0 l 39.33773,67.80162 z"
   id="path33"
   style="fill:#ffffff" /><path
   style="fill:#ffffff;fill-opacity:0;fill-rule:nonzero;stroke:none;stroke-width:0.32"
   d="m 183.39006,221.54678 c -9.96331,-15.18545 -26.4677,-40.34041 -46.34463,-70.63559 0.6815,-11.29348 1.44492,-23.94433 2.23554,-37.04598 a 0.15998525,0.1600483 32.356945 0 0 -0.0194,-0.0865 C 130.83442,98.399115 122.13683,82.526019 113.67605,67.085091 a 0.15999396,0.16000604 19.89667 0 0 -0.28919,0.135501 c 6.85586,17.420634 13.50781,34.323118 19.49166,49.527988 -1.3788,6.83657 -2.66721,13.22495 -3.82849,18.98295 -1.25172,6.20643 -2.54228,12.60544 -3.83783,19.02923 a 0.16002295,0.15998544 35.645367 0 0 0.0185,0.11193 c 13.4919,23.25433 27.08955,46.69093 39.33773,67.80161 a 0.15999999,0.16 73.458619 0 0 0.14665,0.0795 c 8.02564,-0.41512 14.82255,-0.76669 18.54951,-0.95946 z m -0.14204,-0.072 c -3.71185,0.192 -10.46879,0.54149 -18.45191,0.95441 -12.18992,-21.01026 -25.77632,-44.42749 -39.25824,-67.66461 1.29153,-6.40381 2.57799,-12.78249 3.82584,-18.96977 1.1639,-5.77099 2.45551,-12.17521 3.83783,-19.02923 a 0.16,0.16 39.960233 0 0 -0.008,-0.0902 c -5.7185,-14.53061 -12.04782,-30.613312 -18.58259,-47.218035 7.23778,13.208944 15.92753,29.06774 24.34777,44.434675 -0.79087,13.10574 -1.55444,25.75928 -2.23596,37.05294 a 0.16,0.16 30.092049 0 0 0.0259,0.0974 c 19.88994,30.315 36.40559,55.48712 46.37376,70.67999 z"
   id="path32"
   inkscape:path-effect="#path-effect32"
   inkscape:original-d="m 183.25628,221.63455 -46.37376,-70.67999 2.23874,-37.099 -25.58552,-46.693573 19.50896,49.571943 v 0 l -7.67566,38.05846 v 0 l 39.33773,67.80162 z"
   inkscape:linked-fill="path33" /></svg>
