<?xml version="1.0" encoding="UTF-8" standalone="no"?>
<!-- Uploaded to: SVG Repo, www.svgrepo.com, Transformed by: SVG Repo Mixer Tools -->

<svg
   width="150.00914"
   height="150.03847"
   viewBox="0 0 4.5002742 4.501154"
   fill="none"
   stroke="#ffffff"
   version="1.1"
   id="svg1"
   sodipodi:docname="speaker-2-svgrepo-com.svg"
   inkscape:version="1.3 (0e150ed6c4, 2023-07-21)"
   xmlns:inkscape="http://www.inkscape.org/namespaces/inkscape"
   xmlns:sodipodi="http://sodipodi.sourceforge.net/DTD/sodipodi-0.dtd"
   xmlns="http://www.w3.org/2000/svg"
   xmlns:svg="http://www.w3.org/2000/svg">
  <defs
     id="defs1" />
  <sodipodi:namedview
     id="namedview1"
     pagecolor="#ffffff"
     bordercolor="#000000"
     borderopacity="0.25"
     inkscape:showpageshadow="2"
     inkscape:pageopacity="0.0"
     inkscape:pagecheckerboard="true"
     inkscape:deskcolor="#d1d1d1"
     showborder="false"
     inkscape:zoom="4.5277026"
     inkscape:cx="78.295779"
     inkscape:cy="76.970603"
     inkscape:window-width="1920"
     inkscape:window-height="1009"
     inkscape:window-x="-8"
     inkscape:window-y="-8"
     inkscape:window-maximized="1"
     inkscape:current-layer="svg1" />
  <g
     id="SVGRepo_bgCarrier"
     stroke-width="0"
     transform="translate(-2.5371292,-2.525682)" />
  <g
     id="SVGRepo_tracerCarrier"
     stroke-linecap="round"
     stroke-linejoin="round"
     transform="translate(-2.5371292,-2.525682)" />
  <g
     id="SVGRepo_iconCarrier"
     transform="matrix(0.19782696,0,0,0.19936414,-0.12589786,-0.12980059)">
    <path
       d="m 16,9 c 0.5,0.5 1,1.5 1,3 0,1.5 -0.5,2.5 -1,3 m 3,-9 c 1.5,1.5 2,4 2,6 0,2 -0.5,4.5 -2,6 M 13,3 7,8 H 5 C 3.89543,8 3,8.89543 3,10 v 4 c 0,1.1046 0.89543,2 2,2 h 2 l 6,5 z"
       stroke="#ffffff"
       stroke-width="0.936"
       stroke-linecap="round"
       stroke-linejoin="round"
       id="path1" />
  </g>
</svg>
