<?xml version="1.0" encoding="UTF-8" standalone="no"?>
<!-- Uploaded to: SVG Repo, www.svgrepo.com, Transformed by: SVG Repo Mixer Tools -->

<svg
   fill="#ffffff"
   version="1.1"
   id="Capa_1"
   width="150px"
   height="150px"
   viewBox="0 0 470.34 470.34"
   xml:space="preserve"
   stroke="#ffffff"
   stroke-width="0.0047034"
   sodipodi:docname="water-drop-svgrepo-com.svg"
   inkscape:version="1.3 (0e150ed6c4, 2023-07-21)"
   xmlns:inkscape="http://www.inkscape.org/namespaces/inkscape"
   xmlns:sodipodi="http://sodipodi.sourceforge.net/DTD/sodipodi-0.dtd"
   xmlns="http://www.w3.org/2000/svg"
   xmlns:svg="http://www.w3.org/2000/svg"><defs
   id="defs1"><inkscape:path-effect
     effect="powerstroke"
     id="path-effect2"
     is_visible="true"
     lpeversion="1.3"
     scale_width="1"
     interpolator_type="CubicBezierJohan"
     interpolator_beta="0.2"
     start_linecap_type="zerowidth"
     end_linecap_type="zerowidth"
     offset_points="3,4.9921382"
     linejoin_type="extrp_arc"
     miter_limit="4"
     not_jump="false"
     sort_points="true"
     message="&lt;b&gt;Ctrl + click&lt;/b&gt; on existing node and move it" /><inkscape:path-effect
     effect="fill_between_many"
     method="bsplinespiro"
     autoreverse="false"
     close="false"
     join="false"
     linkedpaths="#path2,0,1"
     id="path-effect3" /><inkscape:path-effect
     effect="powerstroke"
     id="path-effect2-5"
     is_visible="true"
     lpeversion="1.3"
     scale_width="1"
     interpolator_type="CubicBezierJohan"
     interpolator_beta="0.2"
     start_linecap_type="zerowidth"
     end_linecap_type="zerowidth"
     offset_points="3,4.9921382"
     linejoin_type="extrp_arc"
     miter_limit="4"
     not_jump="false"
     sort_points="true"
     message="&lt;b&gt;Ctrl + click&lt;/b&gt; on existing node and move it" /></defs><sodipodi:namedview
   id="namedview1"
   pagecolor="#ffffff"
   bordercolor="#000000"
   borderopacity="0.25"
   inkscape:showpageshadow="2"
   inkscape:pageopacity="0.0"
   inkscape:pagecheckerboard="true"
   inkscape:deskcolor="#d1d1d1"
   showborder="false"
   inkscape:zoom="3.8325188"
   inkscape:cx="70.058366"
   inkscape:cy="78.147041"
   inkscape:window-width="1920"
   inkscape:window-height="1009"
   inkscape:window-x="-8"
   inkscape:window-y="-8"
   inkscape:window-maximized="1"
   inkscape:current-layer="Capa_1" />&#10;&#10;<g
   id="SVGRepo_bgCarrier"
   stroke-width="0" />&#10;&#10;<g
   id="SVGRepo_tracerCarrier"
   stroke-linecap="round"
   stroke-linejoin="round" />&#10;&#10;<g
   id="SVGRepo_iconCarrier"> <g
   id="g1"> <path
   d="M235.169,470.34c99.262,0,180.016-80.756,180.016-180.018c0-41.055-28.979-101.928-86.129-180.933 C287.262,51.617,244.866,4.585,244.442,4.117C242.072,1.496,238.705,0,235.17,0c-3.534,0-6.903,1.496-9.273,4.117 c-0.423,0.469-42.819,47.5-84.613,105.272c-57.152,79.004-86.13,139.878-86.13,180.933 C55.152,389.584,135.907,470.34,235.169,470.34z M161.41,124.223c29.423-40.688,59.156-75.953,73.761-92.8 c14.578,16.813,44.227,51.977,73.628,92.621c53.244,73.6,81.387,131.099,81.387,166.278c0,85.477-69.541,155.018-155.017,155.018 c-85.477,0-155.017-69.541-155.017-155.018C80.152,255.173,108.251,197.736,161.41,124.223z"
   id="path1" /> </g> </g>&#10;&#10;<rect
   style="fill:#ffffff;stroke-width:0.014748"
   id="rect1"
   width="102.67864"
   height="29.044556"
   x="186.1306"
   y="254.3445"
   ry="6.6530261" /><path
   inkscape:original-d="M 0,0"
   inkscape:path-effect="#path-effect3"
   d="M 186.23287,260.02048 237.26537,146.34786 217.22054,258.4353 Z"
   id="path3"
   style="fill:#ffffff" /><path
   style="fill:#ffffff;fill-rule:nonzero;stroke:none;stroke-width:0.014748"
   d="m 186.23287,293.25796 51.0325,-113.67262 -20.04483,112.08744 z"
   id="path2"
   inkscape:path-effect="#path-effect2"
   inkscape:original-d="m 186.23287,293.25796 51.0325,-113.67262 -20.04483,112.08744 z"
   inkscape:linked-fill="path3"
   transform="translate(0,-33.237481)" /><path
   style="fill:#ffffff;fill-rule:nonzero;stroke:none;stroke-width:0.014748"
   d="m 186.23287,293.25796 51.0325,-113.67262 -20.04483,112.08744 z"
   id="path2-9"
   inkscape:path-effect="#path-effect2-5"
   inkscape:original-d="m 186.23287,293.25796 51.0325,-113.67262 -20.04483,112.08744 z"
   inkscape:linked-fill="path3"
   transform="rotate(180,237.23391,286.33982)" /></svg>
